<svg id="topo-login" xmlns="http://www.w3.org/2000/svg" width="27" height="27" viewBox="0 0 27 27">
  <g id="Grupo_3" data-name="Grupo 3" transform="translate(0 0)">
    <g id="Grupo_2" data-name="Grupo 2">
      <path id="Caminho_3" data-name="Caminho 3" d="M-144.741-193.716a13.447,13.447,0,0,0-5.13-3.218,7.8,7.8,0,0,0,3.389-6.431,7.814,7.814,0,0,0-7.8-7.8,7.814,7.814,0,0,0-7.8,7.8,7.8,7.8,0,0,0,3.389,6.431,13.447,13.447,0,0,0-5.13,3.218,13.412,13.412,0,0,0-3.954,9.546h2.109a11.4,11.4,0,0,1,11.391-11.391A11.4,11.4,0,0,1-142.9-184.17h2.109A13.412,13.412,0,0,0-144.741-193.716Zm-9.546-3.954a5.7,5.7,0,0,1-5.7-5.7,5.7,5.7,0,0,1,5.7-5.7,5.7,5.7,0,0,1,5.7,5.7A5.7,5.7,0,0,1-154.287-197.67Z" transform="translate(167.787 211.17)"/>
    </g>
  </g>
  <g id="Grupo_4" data-name="Grupo 4" transform="translate(4.396 24.33)">
    <rect id="Retângulo_2" data-name="Retângulo 2" width="18.31" height="2.289" rx="1.144" transform="translate(0 0)"/>
  </g>
</svg>
