<svg xmlns="http://www.w3.org/2000/svg" width="27.43" height="27" viewBox="0 0 27.43 27">
  <g id="topo-atendimento" transform="translate(0 -4.011)">
    <g id="Grupo_827" data-name="Grupo 827" transform="translate(0 4.011)">
      <g id="Grupo_826" data-name="Grupo 826" transform="translate(0 0)">
        <path id="Caminho_1240" data-name="Caminho 1240" d="M27.331,25.324l-1.593-4.636A11.6,11.6,0,0,0,15.516,4.013,11.586,11.586,0,0,0,3.743,15.446,8.442,8.442,0,0,0,1.18,25.819l-1.1,3.193a1.509,1.509,0,0,0,1.421,2A1.519,1.519,0,0,0,2,30.928l3.193-1.1a8.478,8.478,0,0,0,3.61.815h.013a8.43,8.43,0,0,0,6.817-3.466,11.622,11.622,0,0,0,4.788-1.172L25.055,27.6a1.805,1.805,0,0,0,.587.1,1.793,1.793,0,0,0,1.689-2.375ZM8.814,29.013H8.8a6.828,6.828,0,0,1-3.171-.787.817.817,0,0,0-.647-.05L1.711,29.3l1.125-3.275a.816.816,0,0,0-.05-.647,6.807,6.807,0,0,1,1.109-7.892,11.631,11.631,0,0,0,9.7,9.567A6.79,6.79,0,0,1,8.814,29.013Zm16.935-2.994a.148.148,0,0,1-.163.038l-4.964-1.706a.816.816,0,0,0-.647.05,9.973,9.973,0,0,1-4.631,1.15h-.015a9.993,9.993,0,0,1-9.953-9.792A9.954,9.954,0,0,1,15.49,5.645a9.956,9.956,0,0,1,8.642,14.6.816.816,0,0,0-.05.647l1.706,4.964A.148.148,0,0,1,25.749,26.018Z" transform="translate(0 -4.011)"/>
      </g>
    </g>
    <g id="Grupo_829" data-name="Grupo 829" transform="translate(9.648 11.27)">
      <g id="Grupo_828" data-name="Grupo 828">
        <path id="Caminho_1241" data-name="Caminho 1241" d="M190.637,139.512H180.91a.816.816,0,1,0,0,1.633h9.727a.816.816,0,1,0,0-1.633Z" transform="translate(-180.094 -139.512)"/>
      </g>
    </g>
    <g id="Grupo_831" data-name="Grupo 831" transform="translate(9.648 14.628)">
      <g id="Grupo_830" data-name="Grupo 830">
        <path id="Caminho_1242" data-name="Caminho 1242" d="M190.637,202.183H180.91a.816.816,0,1,0,0,1.633h9.727a.816.816,0,0,0,0-1.633Z" transform="translate(-180.094 -202.183)"/>
      </g>
    </g>
    <g id="Grupo_833" data-name="Grupo 833" transform="translate(9.648 17.985)">
      <g id="Grupo_832" data-name="Grupo 832" transform="translate(0 0)">
        <path id="Caminho_1243" data-name="Caminho 1243" d="M186.892,264.852h-5.983a.816.816,0,0,0,0,1.633h5.983a.816.816,0,0,0,0-1.633Z" transform="translate(-180.093 -264.852)"/>
      </g>
    </g>
  </g>
</svg>
