<svg id="topo-instagram" xmlns="http://www.w3.org/2000/svg" width="17.543" height="17.543" viewBox="0 0 17.543 17.543">
  <g id="Grupo_89" data-name="Grupo 89" transform="translate(4.064 4.064)">
    <g id="Grupo_88" data-name="Grupo 88">
      <path id="Caminho_154" data-name="Caminho 154" d="M118.344,85.4c1.257,0,1.406,0,1.9.028a2.6,2.6,0,0,1,.874.162,1.559,1.559,0,0,1,.893.893,2.611,2.611,0,0,1,.162.874c.023.5.028.645.028,1.9s0,1.406-.028,1.9a2.605,2.605,0,0,1-.162.874,1.558,1.558,0,0,1-.893.894,2.6,2.6,0,0,1-.874.162c-.5.023-.645.028-1.9.028s-1.406,0-1.9-.028a2.6,2.6,0,0,1-.874-.162,1.561,1.561,0,0,1-.893-.894,2.6,2.6,0,0,1-.162-.874c-.023-.5-.028-.645-.028-1.9s0-1.406.028-1.9a2.6,2.6,0,0,1,.162-.874,1.562,1.562,0,0,1,.893-.893,2.6,2.6,0,0,1,.874-.162c.5-.023.645-.028,1.9-.028m0-.848c-1.278,0-1.439.005-1.941.028a3.447,3.447,0,0,0-1.143.219,2.4,2.4,0,0,0-1.376,1.377,3.444,3.444,0,0,0-.219,1.142c-.023.5-.028.663-.028,1.941s.005,1.439.028,1.941a3.444,3.444,0,0,0,.219,1.142,2.4,2.4,0,0,0,1.376,1.377,3.458,3.458,0,0,0,1.143.219c.5.023.662.028,1.941.028s1.439-.005,1.941-.028a3.458,3.458,0,0,0,1.143-.219,2.406,2.406,0,0,0,1.377-1.377,3.456,3.456,0,0,0,.219-1.142c.023-.5.028-.663.028-1.941s-.005-1.439-.028-1.941a3.456,3.456,0,0,0-.219-1.142,2.406,2.406,0,0,0-1.377-1.377,3.447,3.447,0,0,0-1.143-.219c-.5-.023-.662-.028-1.941-.028" transform="translate(-113.637 -84.551)" fill="#ffe606"/>
      <path id="Caminho_155" data-name="Caminho 155" d="M121.13,89.627a2.417,2.417,0,1,0,2.417,2.417,2.417,2.417,0,0,0-2.417-2.417m0,3.987a1.569,1.569,0,1,1,1.569-1.569,1.569,1.569,0,0,1-1.569,1.569" transform="translate(-116.423 -87.337)" fill="#ffe606"/>
      <path id="Caminho_156" data-name="Caminho 156" d="M129.519,88.728a.565.565,0,1,1-.565-.565.565.565,0,0,1,.565.565" transform="translate(-121.734 -86.534)" fill="#ffe606"/>
    </g>
  </g>
  <g id="Grupo_90" data-name="Grupo 90" transform="translate(0 0)">
    <path id="Caminho_157" data-name="Caminho 157" d="M110.231,89.918A8.771,8.771,0,1,1,119,81.146,8.781,8.781,0,0,1,110.231,89.918Zm0-16.767a8,8,0,1,0,8,8A8,8,0,0,0,110.231,73.151Z" transform="translate(-101.46 -72.375)" fill="#ffe606"/>
  </g>
</svg>
