<svg id="topo-facebook" xmlns="http://www.w3.org/2000/svg" width="17.543" height="17.543" viewBox="0 0 17.543 17.543">
  <g id="Grupo_86" data-name="Grupo 86" transform="translate(6.376 4.133)">
    <path id="Caminho_152" data-name="Caminho 152" d="M62.592,93.86h2.09V88.627H66.14l.156-1.753H64.682v-1c0-.413.083-.576.483-.576H66.3V83.482H64.848c-1.555,0-2.256.685-2.256,2v1.4H61.5v1.774h1.087Z" transform="translate(-61.505 -83.482)" fill="#ffe606"/>
  </g>
  <g id="Grupo_87" data-name="Grupo 87" transform="translate(0 0)">
    <path id="Caminho_153" data-name="Caminho 153" d="M52.975,89.918a8.771,8.771,0,1,1,8.772-8.772A8.781,8.781,0,0,1,52.975,89.918Zm0-16.767a8,8,0,1,0,8,8A8,8,0,0,0,52.975,73.151Z" transform="translate(-44.204 -72.375)" fill="#ffe606"/>
  </g>
</svg>
