<svg xmlns="http://www.w3.org/2000/svg" width="39.398" height="30.952" viewBox="0 0 39.398 30.952">
  <g id="banner-regua_4" transform="translate(0 -48.025)">
    <g id="Grupo_785" data-name="Grupo 785" transform="translate(0 48.025)">
      <g id="Grupo_784" data-name="Grupo 784" transform="translate(0 0)">
        <path id="Caminho_1058" data-name="Caminho 1058" d="M39.383,71.661V65.049a6.4,6.4,0,0,0-.7-2.814L34.47,55.06a2.723,2.723,0,0,0-2.392-1.407H25.747a1.863,1.863,0,0,0-1.829,1.829V70.536H22.511v-19.7A2.822,2.822,0,0,0,19.7,48.025H0V73.35H4.221a5.738,5.738,0,0,1,5.487-4.221,5.614,5.614,0,0,1,5.487,4.221H25.465a5.738,5.738,0,0,1,5.487-4.221,5.336,5.336,0,0,1,4.924,3.1A2.179,2.179,0,0,0,37.7,73.35,1.622,1.622,0,0,0,39.383,71.661ZM26.732,63.5V56.467h5.628l4.08,7.035Z" transform="translate(0 -48.025)" fill="#eed601"/>
      </g>
    </g>
    <g id="Grupo_787" data-name="Grupo 787" transform="translate(26.732 70.536)">
      <g id="Grupo_786" data-name="Grupo 786" transform="translate(0 0)">
        <path id="Caminho_1059" data-name="Caminho 1059" d="M308.221,304.025a4.221,4.221,0,1,0,4.221,4.221A4.145,4.145,0,0,0,308.221,304.025Zm0,6.19a1.97,1.97,0,1,1,1.97-1.97A1.923,1.923,0,0,1,308.221,310.215Z" transform="translate(-304 -304.025)" fill="#eed601"/>
      </g>
    </g>
    <g id="Grupo_789" data-name="Grupo 789" transform="translate(5.628 70.536)">
      <g id="Grupo_788" data-name="Grupo 788" transform="translate(0 0)">
        <path id="Caminho_1060" data-name="Caminho 1060" d="M68.221,304.025a4.221,4.221,0,1,0,4.221,4.221A4.145,4.145,0,0,0,68.221,304.025Zm0,6.19a1.97,1.97,0,1,1,1.97-1.97A1.923,1.923,0,0,1,68.221,310.215Z" transform="translate(-64 -304.025)" fill="#eed601"/>
      </g>
    </g>
    <g id="Grupo_791" data-name="Grupo 791" transform="translate(8.92 74.043)">
      <g id="Grupo_790" data-name="Grupo 790" transform="translate(0 0)">
        <circle id="Elipse_19" data-name="Elipse 19" cx="0.743" cy="0.743" r="0.743" fill="#eed601"/>
      </g>
    </g>
    <g id="Grupo_793" data-name="Grupo 793" transform="translate(30.478 74.043)">
      <g id="Grupo_792" data-name="Grupo 792" transform="translate(0 0)">
        <circle id="Elipse_20" data-name="Elipse 20" cx="0.743" cy="0.743" r="0.743" fill="#eed601"/>
      </g>
    </g>
  </g>
</svg>
