<svg id="banner-regua_2" xmlns="http://www.w3.org/2000/svg" width="42.554" height="29.921" viewBox="0 0 42.554 29.921">
  <g id="Grupo_98" data-name="Grupo 98">
    <path id="Caminho_132" data-name="Caminho 132" d="M38.814,76H3.74A3.744,3.744,0,0,0,0,79.74v22.44a3.744,3.744,0,0,0,3.74,3.74H38.814a3.744,3.744,0,0,0,3.74-3.74V79.74A3.744,3.744,0,0,0,38.814,76ZM4.987,80.987h9.142v7.48H4.987Zm16.29,19.947H4.987V98.44h16.29Zm16.29-4.987H4.987V93.454h32.58Zm-3.74-7.48a3.724,3.724,0,0,1-2.493-.955,3.74,3.74,0,1,1,0-5.569,3.739,3.739,0,1,1,2.493,6.525Z" transform="translate(0 -76)" fill="#eed601"/>
  </g>
</svg>
