<svg id="logo-virtualiti" xmlns="http://www.w3.org/2000/svg" width="75.656" height="24.042" viewBox="0 0 75.656 24.042">
  <g id="logo-virtualiti-2" data-name="logo-virtualiti">
    <path id="Caminho_1031" data-name="Caminho 1031" d="M14.2,24.136l2.386-3.941L7.157,4.179l1.937.006,8.428,14.269L28.666.11H24.049L17.6,10.6,11.544.11H0Z" transform="translate(0 -0.093)" fill="#939292"/>
    <path id="Caminho_1032" data-name="Caminho 1032" d="M114.39,0l2.175,4.06L119.158,0Z" transform="translate(-97.15)" fill="#939292"/>
    <path id="Caminho_1033" data-name="Caminho 1033" d="M97.373.9l1.682,3.135-2.4,3.748-1.73-3.005L97.373.9M97.4,0,94.39,4.771l2.237,3.885,2.948-4.6Z" transform="translate(-80.165)" fill="#939292"/>
    <path id="Caminho_1034" data-name="Caminho 1034" d="M189.411,48.639h-1.076L185.58,41.92h1.314l1.937,5.172,2.1-5.172h1.314Z" transform="translate(-157.612 -35.602)" fill="#939292"/>
    <path id="Caminho_1035" data-name="Caminho 1035" d="M233.956,48.639H232.75V41.92h1.206Z" transform="translate(-197.673 -35.602)" fill="#939292"/>
    <path id="Caminho_1036" data-name="Caminho 1036" d="M248.183,41.918a3.9,3.9,0,0,1,1.126.151,2.234,2.234,0,0,1,.794.41,1.658,1.658,0,0,1,.47.639,2.311,2.311,0,0,1,.241.853,2.011,2.011,0,0,1-1.539,2.116l1.763,2.55h-1.4l-1.691-2.325h-1.465v2.325H245.28V41.918Zm-1.7,1.022v2.306h1.78a1.426,1.426,0,0,0,1.007-.372,1.255,1.255,0,0,0,.252-.9.948.948,0,0,0-.329-.728,1.59,1.59,0,0,0-1.078-.3Z" transform="translate(-208.314 -35.6)" fill="#939292"/>
    <path id="Caminho_1037" data-name="Caminho 1037" d="M288.024,42.942h-2.185v5.7h-1.231v-5.7H282.49V41.92h5.534Z" transform="translate(-239.916 -35.602)" fill="#939292"/>
    <path id="Caminho_1038" data-name="Caminho 1038" d="M328.727,46.105a2.6,2.6,0,0,1-.754,2.019,3.583,3.583,0,0,1-4.22,0A2.6,2.6,0,0,1,323,46.105V41.92h1.206v4.185a1.7,1.7,0,0,0,.432,1.248,1.637,1.637,0,0,0,1.219.439,1.511,1.511,0,0,0,1.664-1.686V41.92h1.206Z" transform="translate(-274.321 -35.602)" fill="#939292"/>
    <path id="Caminho_1039" data-name="Caminho 1039" d="M362.682,41.92h1.1l2.974,6.719H365.43l-.621-1.412H361.6c-.086.219-.187.452-.3.711s-.223.488-.315.7H359.7Zm-.539,4.069h2.133c-.1-.243-.115-.262-.2-.463s-.182-.4-.27-.6-.181-.408-.279-.624-.2-.452-.32-.725Z" transform="translate(-305.49 -35.602)" fill="#939292"/>
    <path id="Caminho_1040" data-name="Caminho 1040" d="M414.366,48.639H409.64V41.92h1.1v5.7h3.617Z" transform="translate(-347.904 -35.602)" fill="#939292"/>
    <path id="Caminho_1041" data-name="Caminho 1041" d="M445.206,48.639H444V41.92h1.206Z" transform="translate(-377.086 -35.602)" fill="#939292"/>
    <path id="Caminho_1042" data-name="Caminho 1042" d="M460.125,42.942h-2.149v5.7H456.77v-5.7H454.6V41.92h5.522Z" transform="translate(-386.088 -35.602)" fill="#939292"/>
    <path id="Caminho_1043" data-name="Caminho 1043" d="M495.206,48.639H494V41.92h1.206Z" transform="translate(-419.55 -35.602)" fill="#939292"/>
    <path id="Caminho_1044" data-name="Caminho 1044" d="M270.07,97.58h.31l.847,2.007h-.383l-.176-.422h-.909q-.036.1-.086.213c-.035.075-.065.151-.09.209h-.363Zm-.179,1.269h.653c-.03-.072-.057-.139-.084-.2l-.075-.179c-.026-.06-.051-.122-.08-.187l-.09-.217Z" transform="translate(-228.646 -82.874)" fill="#939292"/>
    <path id="Caminho_1045" data-name="Caminho 1045" d="M284.227,99.588h-.319v-.13a.841.841,0,0,1-.243.128.972.972,0,0,1-.323.051.993.993,0,0,1-.365-.066.829.829,0,0,1-.291-.191.893.893,0,0,1-.194-.3,1.25,1.25,0,0,1,0-.838.932.932,0,0,1,.2-.324.874.874,0,0,1,.3-.2,1.006,1.006,0,0,1,.383-.072.989.989,0,0,1,.309.047.9.9,0,0,1,.258.134.832.832,0,0,1,.193.2.9.9,0,0,1,.118.262h-.363a.491.491,0,0,0-.2-.265.583.583,0,0,0-.324-.093.526.526,0,0,0-.231.051.574.574,0,0,0-.19.151.7.7,0,0,0-.128.232,1.022,1.022,0,0,0,0,.591.637.637,0,0,0,.116.217.549.549,0,0,0,.182.139.561.561,0,0,0,.241.048.624.624,0,0,0,.2-.032.549.549,0,0,0,.161-.086.4.4,0,0,0,.1-.125.3.3,0,0,0,.038-.151v-.109h-.6v-.289h.969Z" transform="translate(-239.857 -82.925)" fill="#939292"/>
    <path id="Caminho_1046" data-name="Caminho 1046" d="M368.929,99.588h-.312v-.13a.841.841,0,0,1-.243.128.972.972,0,0,1-.323.051.993.993,0,0,1-.365-.066.828.828,0,0,1-.291-.191.916.916,0,0,1-.194-.3,1.249,1.249,0,0,1,0-.838.954.954,0,0,1,.2-.324.889.889,0,0,1,.3-.2,1.007,1.007,0,0,1,.383-.072.989.989,0,0,1,.309.047.9.9,0,0,1,.258.134.831.831,0,0,1,.193.2.9.9,0,0,1,.118.262H368.6a.484.484,0,0,0-.2-.265.582.582,0,0,0-.323-.093.528.528,0,0,0-.232.051.6.6,0,0,0-.19.151.7.7,0,0,0-.128.232.969.969,0,0,0-.047.3.933.933,0,0,0,.041.283.638.638,0,0,0,.118.217.527.527,0,0,0,.181.139.561.561,0,0,0,.241.048.624.624,0,0,0,.2-.032.53.53,0,0,0,.161-.086.433.433,0,0,0,.105-.125.312.312,0,0,0,.036-.151V98.85h-.6v-.289h.969Z" transform="translate(-311.8 -82.925)" fill="#939292"/>
    <path id="Caminho_1047" data-name="Caminho 1047" d="M297.854,96.6H296.48V94.59h1.356v.3H296.8v.5h.916v.3H296.8v.591h1.055Zm-.79-2.538h.151l.381.443h-.256l-.2-.22c-.032.036-.065.074-.1.112l-.1.109h-.259Z" transform="translate(-251.798 -79.884)" fill="#939292"/>
    <path id="Caminho_1048" data-name="Caminho 1048" d="M306.43,97.58h.312l.977,1.367V97.58h.342v2.007h-.291l-1-1.391v1.391h-.342Z" transform="translate(-260.248 -82.874)" fill="#939292"/>
    <path id="Caminho_1049" data-name="Caminho 1049" d="M320.094,98.948a1,1,0,0,1-.109.24.868.868,0,0,1-.173.2.8.8,0,0,1-.541.2.947.947,0,0,1-.378-.074.846.846,0,0,1-.288-.2.912.912,0,0,1-.182-.3,1.169,1.169,0,0,1-.063-.392,1.216,1.216,0,0,1,.066-.4,1,1,0,0,1,.181-.335.838.838,0,0,1,.3-.219.9.9,0,0,1,.381-.08.809.809,0,0,1,.323.062.868.868,0,0,1,.249.151.777.777,0,0,1,.169.211.726.726,0,0,1,.084.243h-.341a.5.5,0,0,0-.3-.339.472.472,0,0,0-.173-.032.524.524,0,0,0-.25.06.566.566,0,0,0-.184.16.779.779,0,0,0-.116.235,1.038,1.038,0,0,0-.039.285.912.912,0,0,0,.038.27.633.633,0,0,0,.109.219.491.491,0,0,0,.178.151.538.538,0,0,0,.247.053.473.473,0,0,0,.163-.027.481.481,0,0,0,.137-.074.577.577,0,0,0,.107-.112.655.655,0,0,0,.074-.136Z" transform="translate(-270.38 -82.873)" fill="#939292"/>
    <path id="Caminho_1050" data-name="Caminho 1050" d="M331.064,99.587h-.344V97.58h.344Z" transform="translate(-280.878 -82.874)" fill="#939292"/>
    <path id="Caminho_1051" data-name="Caminho 1051" d="M363.992,99.587h-.342V97.58h.342Z" transform="translate(-308.845 -82.874)" fill="#939292"/>
    <path id="Caminho_1052" data-name="Caminho 1052" d="M380.762,99.587h-.342V97.58h.342Z" transform="translate(-323.088 -82.874)" fill="#939292"/>
    <path id="Caminho_1053" data-name="Caminho 1053" d="M334.268,97.58h.312l.847,2.007h-.377l-.176-.422h-.915c-.024.065-.053.136-.087.213s-.063.151-.089.209h-.363Zm-.179,1.269h.657c-.029-.072-.057-.139-.083-.2l-.077-.179c-.024-.06-.051-.122-.078-.187s-.059-.137-.092-.217Z" transform="translate(-283.171 -82.874)" fill="#939292"/>
    <path id="Caminho_1054" data-name="Caminho 1054" d="M352.086,97.6a1,1,0,0,1,.383.069.8.8,0,0,1,.285.2.86.86,0,0,1,.178.315,1.331,1.331,0,0,1,.062.419,1.31,1.31,0,0,1-.065.42.92.92,0,0,1-.182.316.769.769,0,0,1-.283.2.944.944,0,0,1-.369.069h-.754V97.6Zm.014,1.7a.53.53,0,0,0,.225-.047.491.491,0,0,0,.176-.134.627.627,0,0,0,.115-.219,1.009,1.009,0,0,0,.041-.3.761.761,0,0,0-.151-.526.53.53,0,0,0-.413-.172h-.407v1.4Z" transform="translate(-298.39 -82.89)" fill="#939292"/>
    <path id="Caminho_1055" data-name="Caminho 1055" d="M385.267,97.911h-.6v1.7h-.3v-1.7h-.6v-.3h1.507Z" transform="translate(-325.924 -82.899)" fill="#939292"/>
    <path id="Caminho_1056" data-name="Caminho 1056" d="M393.7,97.58h.312l.847,2.007h-.377l-.178-.422h-.913c-.024.065-.054.136-.087.213s-.063.151-.089.209h-.365Zm-.179,1.269h.657l-.083-.2-.077-.179c-.026-.06-.051-.122-.08-.187l-.09-.217Z" transform="translate(-333.644 -82.874)" fill="#939292"/>
    <path id="Caminho_1057" data-name="Caminho 1057" d="M408.3,99.587H407V97.58h.3v1.7h1Z" transform="translate(-345.662 -82.874)" fill="#939292"/>
  </g>
</svg>
