<svg xmlns="http://www.w3.org/2000/svg" width="51" height="33" viewBox="0 0 51 33">
  <g id="pagamento_1" transform="translate(-872 -4253.5)">
    <rect id="Retângulo_195" data-name="Retângulo 195" width="51" height="33" transform="translate(872 4253.5)" fill="#fff"/>
    <g id="Camada_2" data-name="Camada 2" transform="translate(877.582 4254.481)">
      <g id="Layer_1" data-name="Layer 1" transform="translate(0 0)">
        <path id="Caminho_13" data-name="Caminho 13" d="M6.72,27.064a1.4,1.4,0,0,0-.4-.263A1.455,1.455,0,0,0,5.8,26.71H5.5a1.415,1.415,0,0,0-.313.091,2.021,2.021,0,0,0-.293.172,1.011,1.011,0,0,0-.232.283,1.344,1.344,0,0,0-.435-.424,1.4,1.4,0,0,0-.637-.152,1.01,1.01,0,0,0-.243,0,.92.92,0,0,0-.253.071,1.011,1.011,0,0,0-.243.141.637.637,0,0,0-.2.232v-.384H2v3.295h.677V28.226a1.011,1.011,0,0,1,.061-.354.92.92,0,0,1,.172-.283.93.93,0,0,1,.253-.152,1.011,1.011,0,0,1,.3-.061.657.657,0,0,1,.546.212.869.869,0,0,1,.182.627v1.819H4.88V28.226a.839.839,0,0,1,.061-.354.758.758,0,0,1,.172-.283.879.879,0,0,1,.243-.152,1.082,1.082,0,0,1,.313-.061.6.6,0,0,1,.526.212.93.93,0,0,1,.192.627v1.819h.667V28.014a1.455,1.455,0,0,0-.091-.515.829.829,0,0,0-.243-.435Z" transform="translate(0.113 0.321)" fill="#161616"/>
        <path id="Caminho_14" data-name="Caminho 14" d="M10.258,27.195a1.213,1.213,0,0,0-1.011-.465,1.526,1.526,0,0,0-1.132.475,1.749,1.749,0,0,0-.344.526,1.839,1.839,0,0,0,0,1.354,1.435,1.435,0,0,0,.344.526,1.6,1.6,0,0,0,1.132.475,1.3,1.3,0,0,0,.586-.121,1.273,1.273,0,0,0,.424-.344v.414h.7V26.8h-.7Zm0,1.607a.983.983,0,0,1-1.324.546.94.94,0,0,1-.3-.222.809.809,0,0,1-.192-.323,1.172,1.172,0,0,1,0-.788,1.142,1.142,0,0,1,.192-.323.819.819,0,0,1,.3-.222,1.011,1.011,0,0,1,.809,0,.94.94,0,0,1,.313.222,1.172,1.172,0,0,1,.2,1.112Z" transform="translate(0.173 0.321)" fill="#161616"/>
        <path id="Caminho_15" data-name="Caminho 15" d="M14.116,28.4a1.85,1.85,0,0,0-.819-.313l-.283-.071-.2-.051a.586.586,0,0,1-.172-.061.162.162,0,0,1-.111-.091.273.273,0,0,1-.051-.141.344.344,0,0,1,.162-.273.879.879,0,0,1,.445-.111,1.445,1.445,0,0,1,.293,0,2.324,2.324,0,0,1,.283.061l.232.091.182.091.3-.536a2.082,2.082,0,0,0-.6-.253,2.769,2.769,0,0,0-.707-.091,1.718,1.718,0,0,0-.556.081,1.011,1.011,0,0,0-.424.2.829.829,0,0,0-.263.323,1.011,1.011,0,0,0-.091.435.869.869,0,0,0,.273.637,1.556,1.556,0,0,0,.809.3h.344a1.1,1.1,0,0,1,.414.121.293.293,0,0,1,.141.232.334.334,0,0,1-.182.283,1.142,1.142,0,0,1-.546.1,1.4,1.4,0,0,1-.354,0,1.445,1.445,0,0,1-.283-.071,1.6,1.6,0,0,1-.232-.111,1.9,1.9,0,0,1-.182-.121l-.323.526a2.021,2.021,0,0,0,.354.212,2.345,2.345,0,0,0,.374.131A3.2,3.2,0,0,0,12.7,30h.283a2.183,2.183,0,0,0,.617-.071,1.8,1.8,0,0,0,.465-.222.92.92,0,0,0,.273-.323.768.768,0,0,0,.1-.414A.687.687,0,0,0,14.116,28.4Z" transform="translate(0.216 0.32)" fill="#161616"/>
        <path id="Caminho_16" data-name="Caminho 16" d="M20.609,27.175a1.375,1.375,0,0,0-.485-.344,1.86,1.86,0,0,0-.617-.121,1.678,1.678,0,0,0-.657.121,1.87,1.87,0,0,0-.505.344,1.516,1.516,0,0,0-.323.526,2.021,2.021,0,0,0-.131.687,1.708,1.708,0,0,0,.131.7,1.455,1.455,0,0,0,.334.526,1.546,1.546,0,0,0,.526.334,1.91,1.91,0,0,0,.667.131,2.749,2.749,0,0,0,.7-.091,1.789,1.789,0,0,0,.627-.364l-.344-.5a1.627,1.627,0,0,1-.445.253,1.415,1.415,0,0,1-.485.091,1.2,1.2,0,0,1-.323-.051.809.809,0,0,1-.283-.131,1.223,1.223,0,0,1-.212-.253,1.273,1.273,0,0,1-.131-.374h2.385a.273.273,0,0,1,0-.121.667.667,0,0,0,0-.141,1.91,1.91,0,0,0-.111-.677,2.678,2.678,0,0,0-.313-.546Zm-1.961.95a1.4,1.4,0,0,1,.1-.334.6.6,0,0,1,.172-.243.776.776,0,0,1,.566-.222.768.768,0,0,1,.546.2,1.011,1.011,0,0,1,.263.6Z" transform="translate(0.283 0.321)" fill="#161616"/>
        <path id="Caminho_17" data-name="Caminho 17" d="M29.808,27.195A1.223,1.223,0,0,0,28.8,26.73a1.567,1.567,0,0,0-1.142.475,1.435,1.435,0,0,0-.344.526,1.839,1.839,0,0,0,0,1.354,1.223,1.223,0,0,0,.344.526,1.587,1.587,0,0,0,1.142.475,1.3,1.3,0,0,0,.586-.121,1.274,1.274,0,0,0,.424-.344v.414h.7V26.8h-.7Zm0,1.607a1.011,1.011,0,0,1-.2.323,1.112,1.112,0,0,1-.313.222,1.284,1.284,0,0,1-.384.071,1.3,1.3,0,0,1-.4-.071,1.011,1.011,0,0,1-.485-.546,1.172,1.172,0,0,1-.01-.788,1.142,1.142,0,0,1,.192-.323.708.708,0,0,1,.293-.222.91.91,0,0,1,.4-.081,1.243,1.243,0,0,1,.384.081.94.94,0,0,1,.313.222,1.011,1.011,0,0,1,.2.323,1.3,1.3,0,0,1,.071.4,1.283,1.283,0,0,1-.091.384Z" transform="translate(0.382 0.321)" fill="#161616"/>
        <path id="Caminho_18" data-name="Caminho 18" d="M17.093,29.368a.778.778,0,0,1-.334.061h-.2c-.061,0-.1-.061-.152-.1a.4.4,0,0,1-.111-.192.849.849,0,0,1,0-.273V27.437h1.132V26.8H16.254V25.79h-.7V26.8H14.9v.637h.637v1.4a1.294,1.294,0,0,0,.313.95,1.162,1.162,0,0,0,.849.3A1.627,1.627,0,0,0,17.245,30l.293-.141-.232-.586a.435.435,0,0,1-.212.091Z" transform="translate(0.251 0.311)" fill="#161616"/>
        <path id="Caminho_19" data-name="Caminho 19" d="M23.327,26.711a1.182,1.182,0,0,0-.536.111,1.081,1.081,0,0,0-.394.4V26.8H21.76v3.234H22.4V28.247a1.011,1.011,0,0,1,.061-.374,1.567,1.567,0,0,1,.152-.283.637.637,0,0,1,.253-.162.788.788,0,0,1,.3-.071h.424l.2-.667-.172-.051A1.425,1.425,0,0,1,23.327,26.711Z" transform="translate(0.324 0.32)" fill="#161616"/>
        <path id="Caminho_20" data-name="Caminho 20" d="M32.946,26.711a1.2,1.2,0,0,0-.526.111,1.112,1.112,0,0,0-.4.4V26.8H31.39v3.234h.617V28.247a1.011,1.011,0,0,1,.071-.374,1.566,1.566,0,0,1,.152-.283.677.677,0,0,1,.243-.162.829.829,0,0,1,.313-.071h.424l.192-.667-.162-.051a1.516,1.516,0,0,1-.293.071Z" transform="translate(0.427 0.32)" fill="#161616"/>
        <path id="Caminho_21" data-name="Caminho 21" d="M36.178,25.51v1.7a1.193,1.193,0,0,0-1.011-.465A1.526,1.526,0,0,0,34,27.218a1.748,1.748,0,0,0-.344.526,1.839,1.839,0,0,0,0,1.354,1.819,1.819,0,0,0,.344.526,1.587,1.587,0,0,0,1.132.475,1.3,1.3,0,0,0,.586-.121,1.243,1.243,0,0,0,.414-.344v.414h.7V25.51Zm0,3.3a1.011,1.011,0,0,1-.2.323.879.879,0,0,1-.313.222,1.162,1.162,0,0,1-.8,0,.94.94,0,0,1-.3-.222.93.93,0,0,1-.182-.323,1.172,1.172,0,0,1,0-.788,1.415,1.415,0,0,1,.182-.323.819.819,0,0,1,.3-.222.889.889,0,0,1,.394-.081,1.364,1.364,0,0,1,.4.081.778.778,0,0,1,.313.222,1.011,1.011,0,0,1,.2.323,1.071,1.071,0,0,1,.081.4,1.738,1.738,0,0,1-.081.384Z" transform="translate(0.45 0.308)" fill="#161616"/>
        <path id="Caminho_22" data-name="Caminho 22" d="M25.011,27.66a.849.849,0,0,1,.313-.222,1.071,1.071,0,0,1,.4-.081h0a1.273,1.273,0,0,1,.435.081,1.132,1.132,0,0,1,.334.2l.344-.556a1.324,1.324,0,0,0-.435-.253,1.9,1.9,0,0,0-1.375,0,1.647,1.647,0,0,0-.9.889,1.789,1.789,0,0,0,0,1.334,1.637,1.637,0,0,0,.9.879,1.9,1.9,0,0,0,1.375,0,1.577,1.577,0,0,0,.435-.253l-.344-.556a.869.869,0,0,1-.334.2,1.324,1.324,0,0,1-.435.081h0a1.071,1.071,0,0,1-.4-.081.819.819,0,0,1-.313-.212.9.9,0,0,1-.212-.334,1.071,1.071,0,0,1,0-.829,3.093,3.093,0,0,1,.212-.293Z" transform="translate(0.348 0.321)" fill="#161616"/>
        <path id="Caminho_23" data-name="Caminho 23" d="M38.324,29.5h.131l.111.061a.525.525,0,0,1,.081.111.364.364,0,0,1,0,.253.394.394,0,0,1-.081.1.334.334,0,0,1-.232.091h-.141a.232.232,0,0,1-.1-.071.313.313,0,0,1-.081-.111.364.364,0,0,1,0-.253.293.293,0,0,1,.182-.162Zm0,.576a.152.152,0,0,0,.091,0H38.5a.6.6,0,0,0,0-.081.212.212,0,0,0,0-.182v-.081l-.081-.051a.212.212,0,0,0-.192,0l-.071.051a.111.111,0,0,0,0,.081.414.414,0,0,0,0,.182v.081a.121.121,0,0,0,.071,0Zm0-.394a.091.091,0,0,1,.091,0,.081.081,0,0,1,0,.071v.061a.111.111,0,0,1-.061,0l.091.111h-.111l-.071-.111h0v.192h-.081v-.3h.141Zm-.061.071v.061h.04Z" transform="translate(0.498 0.351)" fill="#fff"/>
        <path id="Caminho_24" data-name="Caminho 24" d="M15.02,12.129a12.128,12.128,0,0,1,4.589-9.511,12.128,12.128,0,1,0,0,18.95,12.068,12.068,0,0,1-4.589-9.44Z" transform="translate(0.091 0.035)" fill="#ed2026"/>
        <ellipse id="Elipse_1" data-name="Elipse 1" cx="4.589" cy="9.47" rx="4.589" ry="9.47" transform="translate(15.11 2.663)" fill="#f26a21"/>
        <path id="Caminho_25" data-name="Caminho 25" d="M38,18.435v-.354H37.87V18h.384v.091H38.1v.354Zm.768,0v-.313l-.111.263h-.152l-.111-.263v.313h-.1V18h.152l.111.293.1-.293h.162v.445Z" transform="translate(0.496 0.228)" fill="#f99f1d"/>
        <path id="Caminho_26" data-name="Caminho 26" d="M26.9,0a12.128,12.128,0,0,0-7.5,2.618,12.068,12.068,0,0,1,2.021,16.959A12.239,12.239,0,0,1,19.4,21.6,12.128,12.128,0,1,0,26.9,0Z" transform="translate(0.299 0.036)" fill="#f99f1d"/>
      </g>
    </g>
  </g>
</svg>
