<svg xmlns="http://www.w3.org/2000/svg" width="51" height="34" viewBox="0 0 51 34">
  <g id="pagamento_5" transform="translate(-1104 -4252.5)">
    <rect id="Retângulo_202" data-name="Retângulo 202" width="51" height="34" transform="translate(1104 4252.5)" fill="#fff"/>
    <g id="Camada_2" data-name="Camada 2" transform="translate(1107.225 4261.68)">
      <g id="Modo_de_isolamento" data-name="Modo de isolamento" transform="translate(0 0)">
        <path id="Caminho_48" data-name="Caminho 48" d="M10.6,3.574a4.75,4.75,0,0,1,6.01,3,5.576,5.576,0,0,1,.15.578l3.253-.67A8.09,8.09,0,0,0,10.47.17a7.628,7.628,0,0,0-.93.248Z" transform="translate(-4.034 -0.006)" fill="#fff200"/>
        <path id="Caminho_49" data-name="Caminho 49" d="M2.733,15.6l2.2-2.491a4.744,4.744,0,0,1-.41-6.7A4.582,4.582,0,0,1,4.934,6L2.727,3.51a8.09,8.09,0,0,0-.693,11.4,7.916,7.916,0,0,0,.693.7Z" transform="translate(-0.012 -1.485)" fill="#00a4e0"/>
        <path id="Caminho_50" data-name="Caminho 50" d="M16.74,15.62a4.756,4.756,0,0,1-5.6,3.687,4.426,4.426,0,0,1-.543-.144L9.54,22.323a8.09,8.09,0,0,0,10.222-5.114,8.28,8.28,0,0,0,.248-.919Z" transform="translate(-4.034 -6.598)" fill="#ef4123"/>
        <path id="Caminho_51" data-name="Caminho 51" d="M43.026,19.48a2.889,2.889,0,0,1-3.565.376L38.38,21.589a4.917,4.917,0,0,0,6.062-.653Z" transform="translate(-16.209 -8.227)"/>
        <path id="Caminho_52" data-name="Caminho 52" d="M39.395,7.37a4.923,4.923,0,0,0-4.2,7.616L44.116,11.2a4.929,4.929,0,0,0-4.721-3.8m-2.959,5.23a1.734,1.734,0,0,1,0-.347,2.889,2.889,0,0,1,5.114-1.832Z" transform="translate(-14.526 -3.114)"/>
        <path id="Caminho_53" data-name="Caminho 53" d="M54.684,3.52v9.523l1.653.688-.78,1.878-1.635-.67a1.867,1.867,0,0,1-.8-.676,2.115,2.115,0,0,1-.318-1.156V3.52Z" transform="translate(-22.296 -1.49)"/>
        <path id="Caminho_54" data-name="Caminho 54" d="M65.887,9.541a2.889,2.889,0,0,1,3.669,1.838,3.157,3.157,0,0,1,.087.335l1.988-.4a4.929,4.929,0,0,0-5.813-3.843c-.2.04-.381.092-.578.15Z" transform="translate(-27.548 -3.113)"/>
        <path id="Caminho_55" data-name="Caminho 55" d="M61.091,16.889l1.346-1.52a2.889,2.889,0,0,1-.248-4.091,2.016,2.016,0,0,1,.248-.248L61.091,9.51a4.923,4.923,0,0,0-.428,6.934,4.977,4.977,0,0,0,.428.428Z" transform="translate(-25.098 -4.018)"/>
        <path id="Caminho_56" data-name="Caminho 56" d="M69.643,16.9a2.889,2.889,0,0,1-3.427,2.259,1.175,1.175,0,0,1-.329-.092L65.24,21a4.929,4.929,0,0,0,6.218-3.126,3.893,3.893,0,0,0,.15-.578Z" transform="translate(-27.548 -7.138)"/>
      </g>
    </g>
  </g>
</svg>
