<svg xmlns="http://www.w3.org/2000/svg" width="52" height="33" viewBox="0 0 52 33">
  <g id="pagamento_3" transform="translate(-988 -4253.5)">
    <rect id="Retângulo_197" data-name="Retângulo 197" width="52" height="33" transform="translate(988 4253.5)" fill="#fff"/>
    <g id="Camada_2" data-name="Camada 2" transform="translate(991.452 4262.296)">
      <g id="Camada_1" data-name="Camada 1" transform="translate(0 0)">
        <g id="Camada_2-2" data-name="Camada 2">
          <g id="Camada_1-2" data-name="Camada 1-2">
            <path id="Caminho_31" data-name="Caminho 31" d="M18.89,23.382V17.016a.27.27,0,0,1,.265-.281h6.631a.26.26,0,0,1,.218.109l.463.592a.281.281,0,0,0,.39.047.2.2,0,0,0,.047-.047l.468-.6a.281.281,0,0,1,.213-.1H53.246a.275.275,0,0,1,.275.275v5.2a1.039,1.039,0,0,1-.748.993,4.973,4.973,0,0,1-1.206.213H37.541a.281.281,0,0,1-.213-.1l-.281-.353a.27.27,0,0,0-.385-.036.265.265,0,0,0-.1.208h0a.27.27,0,0,1-.27.275H34.044a.275.275,0,0,1-.275-.275V22a.27.27,0,0,0-.27-.27.2.2,0,0,0-.078,0,3.362,3.362,0,0,1-.852.109h-.676a.27.27,0,0,0-.275.27v1a.27.27,0,0,1-.27.275H27.532a.255.255,0,0,1-.218-.109l-.452-.6a.281.281,0,0,0-.39-.052.244.244,0,0,0-.052.052l-.468.608a.281.281,0,0,1-.218.109Z" transform="translate(-9.073 -8.036)" fill="#016fd0" fill-rule="evenodd"/>
            <path id="Caminho_32" data-name="Caminho 32" d="M0,6.641,3.186,0H5.93l.9,2.079V0h3.409l.52,1.5.52-1.5H26.6V.753A3.284,3.284,0,0,1,28.718,0h4.968l.889,2.079V0h2.843l.79,1.174V0h2.879V6.641H38.223l-.754-1.174V6.641H33.26L32.839,5.6h-1.1l-.416,1.039H28.468A2.791,2.791,0,0,1,26.6,5.9v.738H22.315L21.463,5.6V6.641H5.524L5.1,5.6H3.976L3.56,6.641Z" transform="translate(0 0)" fill="#016fd0" fill-rule="evenodd"/>
            <path id="Caminho_33" data-name="Caminho 33" d="M5.231,1.57,3.09,6.549h1.4l.395-1H7.2l.395,1H9.02L6.853,1.57Zm.79,1.159L6.728,4.47H5.319Z" transform="translate(-1.484 -0.754)" fill="#fff" fill-rule="evenodd"/>
            <path id="Caminho_34" data-name="Caminho 34" d="M14.73,6.549V1.57l1.98.01,1.148,3.206L18.986,1.57h1.959V6.549H19.7V2.88L18.389,6.549H17.3L15.972,2.88V6.549Z" transform="translate(-7.075 -0.754)" fill="#fff" fill-rule="evenodd"/>
            <path id="Caminho_35" data-name="Caminho 35" d="M28.33,6.549V1.57h4.059V2.682h-2.8v.852h2.739v1.05H29.588v.883h2.8V6.549Z" transform="translate(-13.607 -0.754)" fill="#fff" fill-rule="evenodd"/>
            <path id="Caminho_36" data-name="Caminho 36" d="M37.54,1.565V6.544h1.247V4.777h.52L40.8,6.544h1.523L40.674,4.709a1.507,1.507,0,0,0,1.362-1.528A1.606,1.606,0,0,0,40.3,1.565Zm1.247,1.117H40.2a.572.572,0,0,1,.592.52.566.566,0,0,1-.572.52h-1.44V2.682Z" transform="translate(-18.031 -0.749)" fill="#fff" fill-rule="evenodd"/>
            <path id="Caminho_37" data-name="Caminho 37" d="M48.443,6.549H47.17V1.57h1.273V6.549Z" transform="translate(-22.657 -0.754)" fill="#fff" fill-rule="evenodd"/>
            <path id="Caminho_38" data-name="Caminho 38" d="M53.186,6.549h-.275A2.19,2.19,0,0,1,50.78,4.08a2.292,2.292,0,0,1,2.468-2.51h1.377V2.75H53.2A1.2,1.2,0,0,0,52.043,4.09a1.216,1.216,0,0,0,1.341,1.367h.327l-.52,1.086Z" transform="translate(-24.391 -0.754)" fill="#fff" fill-rule="evenodd"/>
            <path id="Caminho_39" data-name="Caminho 39" d="M58.636,1.57,56.5,6.549h1.393l.395-1h2.3l.39,1H62.4L60.263,1.57Zm.8,1.159.707,1.741H58.724Z" transform="translate(-27.138 -0.754)" fill="#fff" fill-rule="evenodd"/>
            <path id="Caminho_40" data-name="Caminho 40" d="M68.13,6.549V1.57h1.58L71.731,4.7V1.57h1.242V6.549H71.446L69.372,3.342V6.549Z" transform="translate(-32.724 -0.754)" fill="#fff" fill-rule="evenodd"/>
            <path id="Caminho_41" data-name="Caminho 41" d="M20.52,23.3V18.32h4.059v1.112h-2.8v.852h2.734v1.05H21.778v.883h2.8V23.3Z" transform="translate(-9.856 -8.799)" fill="#fff" fill-rule="evenodd"/>
            <path id="Caminho_42" data-name="Caminho 42" d="M58.79,23.3V18.32h4.054v1.112h-2.8v.852h2.723v1.05H60.042v.883h2.8V23.3Z" transform="translate(-28.238 -8.799)" fill="#fff" fill-rule="evenodd"/>
            <path id="Caminho_43" data-name="Caminho 43" d="M28.587,23.3l1.98-2.458L28.54,18.32h1.569l1.206,1.559,1.206-1.559h1.507l-2,2.489,1.98,2.489H32.443l-1.169-1.533L30.135,23.3Z" transform="translate(-13.708 -8.799)" fill="#fff" fill-rule="evenodd"/>
            <path id="Caminho_44" data-name="Caminho 44" d="M39.35,18.32V23.3h1.278V21.74h1.31a1.722,1.722,0,0,0,1.949-1.731A1.642,1.642,0,0,0,42.1,18.336Zm1.278,1.128h1.382a.561.561,0,0,1,.608.52.275.275,0,0,1,0,.068.577.577,0,0,1-.577.572H40.628V19.463Z" transform="translate(-18.9 -8.799)" fill="#fff" fill-rule="evenodd"/>
            <path id="Caminho_45" data-name="Caminho 45" d="M49.11,18.315v4.979h1.242V21.522h.52l1.491,1.772h1.523l-1.647-1.834A1.517,1.517,0,0,0,53.6,19.931a1.606,1.606,0,0,0-1.736-1.616Zm1.242,1.112h1.414a.577.577,0,0,1,.587.52.556.556,0,0,1-.556.52h-1.44V19.427Z" transform="translate(-23.588 -8.794)" fill="#fff" fill-rule="evenodd"/>
            <path id="Caminho_46" data-name="Caminho 46" d="M67.552,23.308V22.227h2.489c.369,0,.52-.2.52-.421s-.161-.416-.52-.416H68.919A1.393,1.393,0,0,1,67.4,19.9c0-.8.52-1.559,1.949-1.559h2.422l-.52,1.123H69.168c-.395,0-.52.213-.52.411a.426.426,0,0,0,.426.431h1.216a1.361,1.361,0,0,1,1.559,1.429,1.492,1.492,0,0,1-1.621,1.559Z" transform="translate(-32.37 -8.809)" fill="#fff" fill-rule="evenodd"/>
            <path id="Caminho_47" data-name="Caminho 47" d="M76.313,23.308V22.227H78.7c.369,0,.52-.2.52-.421s-.161-.416-.52-.416H77.659A1.393,1.393,0,0,1,76.136,19.9c0-.8.52-1.559,1.949-1.559h2.4l-.52,1.123H77.914c-.4,0-.52.213-.52.411a.431.431,0,0,0,.431.431h1.1a1.361,1.361,0,0,1,1.559,1.429,1.491,1.491,0,0,1-1.621,1.559Z" transform="translate(-36.568 -8.809)" fill="#fff" fill-rule="evenodd"/>
          </g>
        </g>
      </g>
    </g>
  </g>
</svg>
