<svg xmlns="http://www.w3.org/2000/svg" width="52" height="34" viewBox="0 0 52 34">
  <g id="pagamento_6" transform="translate(-1161 -4252.5)">
    <rect id="Retângulo_200" data-name="Retângulo 200" width="52" height="34" transform="translate(1161 4252.5)" fill="#fff"/>
    <g id="Camada_2" data-name="Camada 2" transform="translate(1167.031 4256.098)">
      <g id="Camada_1" data-name="Camada 1">
        <rect id="Retângulo_21" data-name="Retângulo 21" width="1.069" height="26.717" fill="#141313"/>
        <rect id="Retângulo_22" data-name="Retângulo 22" width="2.805" height="17.811" transform="translate(2.182)" fill="#141313"/>
        <rect id="Retângulo_23" data-name="Retângulo 23" width="1.051" height="17.811" transform="translate(6.368)" fill="#141313"/>
        <rect id="Retângulo_24" data-name="Retângulo 24" width="0.65" height="17.811" transform="translate(8.727)" fill="#141313"/>
        <rect id="Retângulo_25" data-name="Retângulo 25" width="0.321" height="17.811" transform="translate(11.319)" fill="#141313"/>
        <rect id="Retângulo_26" data-name="Retângulo 26" width="0.321" height="17.811" transform="translate(12.272)" fill="#141313"/>
        <rect id="Retângulo_27" data-name="Retângulo 27" width="0.668" height="17.811" transform="translate(13.1)" fill="#141313"/>
        <rect id="Retângulo_28" data-name="Retângulo 28" width="1.639" height="17.811" transform="translate(15.897)" fill="#141313"/>
        <rect id="Retângulo_29" data-name="Retângulo 29" width="0.668" height="17.811" transform="translate(18.31)" fill="#141313"/>
        <rect id="Retângulo_30" data-name="Retângulo 30" width="3.349" height="17.811" transform="translate(20.465)" fill="#141313"/>
        <rect id="Retângulo_31" data-name="Retângulo 31" width="0.989" height="17.811" transform="translate(25.194)" fill="#141313"/>
        <rect id="Retângulo_32" data-name="Retângulo 32" width="0.65" height="17.811" transform="translate(27.411)" fill="#141313"/>
        <rect id="Retângulo_33" data-name="Retângulo 33" width="0.321" height="17.811" transform="translate(30.039)" fill="#141313"/>
        <rect id="Retângulo_34" data-name="Retângulo 34" width="0.321" height="17.811" transform="translate(31.107)" fill="#141313"/>
        <rect id="Retângulo_35" data-name="Retângulo 35" width="0.65" height="17.811" transform="translate(31.927)" fill="#141313"/>
        <rect id="Retângulo_36" data-name="Retângulo 36" width="1.817" height="17.811" transform="translate(34.554)" fill="#141313"/>
        <rect id="Retângulo_37" data-name="Retângulo 37" width="0.614" height="17.811" transform="translate(37.047)" fill="#141313"/>
        <rect id="Retângulo_38" data-name="Retângulo 38" width="0.73" height="26.717" transform="translate(38.891)" fill="#141313"/>
        <rect id="Retângulo_39" data-name="Retângulo 39" width="0.258" height="26.717" transform="translate(40.218)" fill="#141313"/>
        <path id="Caminho_63" data-name="Caminho 63" d="M2.65,21.639H5.179A5.931,5.931,0,0,1,6.3,21.7,1.523,1.523,0,0,1,6.96,22a1.781,1.781,0,0,1,.454,2.3,1.5,1.5,0,0,1-.65.614,1.63,1.63,0,0,1,.891.632,1.7,1.7,0,0,1,.294,1.051,2.217,2.217,0,0,1-.2.891,1.665,1.665,0,0,1-.552.712,1.781,1.781,0,0,1-.891.321,13.741,13.741,0,0,1-1.541.045H2.65Zm1.282,1.149v1.621h1.7a.891.891,0,0,0,.517-.249.784.784,0,0,0,.2-.543.739.739,0,0,0-.16-.525.721.721,0,0,0-.419-.24H4.68Zm0,2.77v1.861H5.117a3.562,3.562,0,0,0,.891-.053.793.793,0,0,0,.472-.276.891.891,0,0,0,.178-.6,1.184,1.184,0,0,0-.134-.534.8.8,0,0,0-.4-.321,3.847,3.847,0,0,0-1.158-.116Z" transform="translate(-0.29 -2.368)" fill="#141313"/>
        <path id="Caminho_64" data-name="Caminho 64" d="M9.51,25.132A4.711,4.711,0,0,1,9.8,23.351a3.562,3.562,0,0,1,.579-.953,2.529,2.529,0,0,1,.81-.632,2.966,2.966,0,0,1,1.363-.276,2.823,2.823,0,0,1,2.235.953,3.883,3.883,0,0,1,.837,2.672,3.9,3.9,0,0,1-.828,2.672,2.787,2.787,0,0,1-2.182.908,2.823,2.823,0,0,1-2.235-.953A3.821,3.821,0,0,1,9.51,25.132Zm1.327,0a2.716,2.716,0,0,0,.5,1.781,1.594,1.594,0,0,0,2.253.258,1.781,1.781,0,0,0,.258-.258,2.787,2.787,0,0,0,.49-1.781,2.77,2.77,0,0,0-.472-1.781,1.674,1.674,0,0,0-2.333-.214,1.167,1.167,0,0,0-.2.214,2.734,2.734,0,0,0-.49,1.781Z" transform="translate(-1.04 -2.352)" fill="#141313"/>
        <path id="Caminho_65" data-name="Caminho 65" d="M17.56,28.6V21.69h1.282v5.735H22v1.167Z" transform="translate(-1.922 -2.374)" fill="#141313"/>
        <path id="Caminho_66" data-name="Caminho 66" d="M23.58,28.6V21.64h4.684v1.211h-3.42v1.541h3.17v1.131h-3.17v1.9h3.562v1.167Z" transform="translate(-2.581 -2.368)" fill="#141313"/>
        <path id="Caminho_67" data-name="Caminho 67" d="M31.549,28.6V22.851H29.67V21.64h5.023v1.211H32.831v5.78Z" transform="translate(-3.247 -2.368)" fill="#141313"/>
        <path id="Caminho_68" data-name="Caminho 68" d="M35.759,25.132a4.889,4.889,0,0,1,.294-1.781,3.019,3.019,0,0,1,.6-.953,2.672,2.672,0,0,1,.81-.632,2.992,2.992,0,0,1,1.363-.276,2.823,2.823,0,0,1,2.235.953,3.927,3.927,0,0,1,.837,2.672,3.892,3.892,0,0,1-.819,2.672,2.814,2.814,0,0,1-2.217.953,2.876,2.876,0,0,1-2.253-.953,3.723,3.723,0,0,1-.846-2.654Zm1.327,0a2.716,2.716,0,0,0,.508,1.781,1.594,1.594,0,0,0,2.253.258,2.36,2.36,0,0,0,.258-.258,2.85,2.85,0,0,0,.481-1.781,2.77,2.77,0,0,0-.472-1.781,1.656,1.656,0,0,0-2.36-.258,1.211,1.211,0,0,0-.214.214,2.779,2.779,0,0,0-.49,1.781Z" transform="translate(-3.912 -2.352)" fill="#141313"/>
      </g>
    </g>
  </g>
</svg>
