<svg xmlns="http://www.w3.org/2000/svg" xmlns:xlink="http://www.w3.org/1999/xlink" width="52" height="33" viewBox="0 0 52 33">
  <defs>
    <linearGradient id="linear-gradient" x1="-2.265" y1="-44.975" x2="0.982" y2="-44.956" gradientUnits="objectBoundingBox">
      <stop offset="0" stop-color="#262860"/>
      <stop offset="1" stop-color="#3d429b"/>
    </linearGradient>
    <linearGradient id="linear-gradient-2" x1="-1.728" y1="-42.997" x2="2.076" y2="-42.978" xlink:href="#linear-gradient"/>
    <linearGradient id="linear-gradient-3" x1="0.147" y1="-44.69" x2="2.622" y2="-44.671" xlink:href="#linear-gradient"/>
    <linearGradient id="linear-gradient-4" x1="-1.971" y1="-44.716" x2="4.403" y2="-44.696" xlink:href="#linear-gradient"/>
  </defs>
  <g id="pagamento_2" transform="translate(-929 -4253.5)">
    <rect id="Retângulo_196" data-name="Retângulo 196" width="52" height="33" transform="translate(929 4253.5)" fill="#fff"/>
    <g id="visa-01" transform="translate(931.869 4262.296)">
      <path id="Caminho_27" data-name="Caminho 27" d="M52.254,15.1H48.689c-.087-.609-.261-1.218-.348-1.826-.087-.261-.087-.348-.435-.348H43.644c-.174,0-.261.087-.348.261-.174.609-.435,1.131-.609,1.739a.191.191,0,0,1-.174.174H38.6c.261-.609.435-1.131.7-1.652,1.652-3.914,3.3-7.914,4.957-11.828A1.739,1.739,0,0,1,46.079.4H49.21c.087.435.174.87.261,1.392.783,3.914,1.652,7.827,2.435,11.741.087.522.261.957.348,1.478ZM47.645,9.792,46.514,4.4h-.087l-2,5.392Z" transform="translate(-5.029 -0.051)" fill="url(#linear-gradient)"/>
      <path id="Caminho_28" data-name="Caminho 28" d="M35.158,0l1.392.261c.435.087.87.261,1.3.348-.261,1.044-.435,2.087-.7,3.131-.609-.174-1.131-.348-1.739-.522a4.627,4.627,0,0,0-2.435,0,1.835,1.835,0,0,0-.87.522.818.818,0,0,0-.157,1.148.67.67,0,0,0,.157.157,3.8,3.8,0,0,0,.957.7c.783.435,1.565.87,2.348,1.392a3.409,3.409,0,0,1,1.652,2.522,4.349,4.349,0,0,1-2.087,4.522,7.827,7.827,0,0,1-3.392,1.131,11.976,11.976,0,0,1-4.957-.522c-.087,0-.174-.087-.348-.087a.078.078,0,0,1-.087-.087h0c.261-1.044.435-2.087.7-3.218.261.087.522.261.783.348a7.445,7.445,0,0,0,3.914.522,2.7,2.7,0,0,0,1.044-.435,1.061,1.061,0,0,0,.348-1.461,1.278,1.278,0,0,0-.252-.278,6.557,6.557,0,0,0-1.3-.87c-.7-.435-1.392-.783-2.087-1.218a3.566,3.566,0,0,1-1.574-2.435,4.349,4.349,0,0,1,1.652-3.914A6.958,6.958,0,0,1,33.071.261a.322.322,0,0,0,.261-.087Z" transform="translate(-3.414)" fill="url(#linear-gradient-2)"/>
      <path id="Caminho_29" data-name="Caminho 29" d="M17.916.3a6.827,6.827,0,0,1-.609,1.392c-1.826,4.349-3.653,8.7-5.479,13.133a.391.391,0,0,1-.435.261H7.914c-.261,0-.348-.087-.348-.261L4.7,3.344A2.113,2.113,0,0,0,3.479,1.865,24.691,24.691,0,0,0,.174.821H0C0,.387,0,.387.435.387H6.523A1.739,1.739,0,0,1,8.349,1.865L9.915,9.953a3.479,3.479,0,0,1,.087.435.3.3,0,0,1,.087-.174C11.306,7,12.611,3.865,13.828.648c.087-.174.174-.261.348-.261h3.479A.322.322,0,0,1,17.916.3Z" transform="translate(0 -0.039)" fill="url(#linear-gradient-3)"/>
      <path id="Caminho_30" data-name="Caminho 30" d="M18.8,15.085C19.844,10.128,20.887,5.257,21.931.3h3.827c-.174.783-.348,1.478-.435,2.174-.87,4.088-1.739,8.088-2.609,12.176-.087.261-.174.348-.435.348H18.8Z" transform="translate(-2.45 -0.039)" fill="url(#linear-gradient-4)"/>
    </g>
  </g>
</svg>
