<svg xmlns="http://www.w3.org/2000/svg" width="51" height="34" viewBox="0 0 51 34">
  <g id="pagamento_4" transform="translate(-1046 -4252.5)">
    <rect id="Retângulo_198" data-name="Retângulo 198" width="51" height="34" transform="translate(1046 4252.5)" fill="#fff"/>
    <g id="Camada_2" data-name="Camada 2" transform="translate(1051.711 4254.981)">
      <g id="Camada_1" data-name="Camada 1" transform="translate(0 0)">
        <g id="Camada_2-2" data-name="Camada 2">
          <g id="_Camada_" data-name=" Camada ">
            <path id="Caminho_70" data-name="Caminho 70" d="M22.444,16.314c4.461,0,8.528-3.642,8.528-8.085A8.326,8.326,0,0,0,22.444,0H18.589a8.046,8.046,0,0,0-8.22,8.229,8.171,8.171,0,0,0,8.22,8.085Z" transform="translate(-0.339 0.003)" fill="#0064a7"/>
            <path id="Caminho_71" data-name="Caminho 71" d="M20.354,12.552V3.745a4.731,4.731,0,0,1,0,8.836M13.9,8.168a4.741,4.741,0,0,1,3.035-4.413v8.8A4.741,4.741,0,0,1,13.9,8.168M18.658.7a7.468,7.468,0,1,0,7.468,7.468h0A7.468,7.468,0,0,0,18.658.7" transform="translate(-0.369 -0.023)" fill="#fff"/>
            <path id="Caminho_72" data-name="Caminho 72" d="M1.659,22.511c0,.665.482.742.906.742a2.4,2.4,0,0,0,2.467-2.688,2.592,2.592,0,0,0-2.7-2.775H1.659ZM.83,18.473c0-.781-.4-.732-.79-.732v-.231H2.555A3.141,3.141,0,0,1,6,20.525c0,.858-.5,3.006-3.556,3.006H.04V23.31c.511-.058.761-.077.79-.655Z" transform="translate(0.037 -0.634)"/>
            <path id="Caminho_73" data-name="Caminho 73" d="M7.453,18.258a.426.426,0,1,1-.077-.848h.058a.414.414,0,0,1,.414.414.424.424,0,0,1-.414.434M6.47,23.307h.222c.241,0,.414,0,.414-.289V20.686c0-.385-.135-.434-.453-.607v-.173a9.375,9.375,0,0,0,.964-.318.308.308,0,0,1,.154,0s.058,0,.058.116v3.315c0,.289.193.289.434.289h.154v.222H6.547Z" transform="translate(-0.197 -0.631)"/>
            <path id="Caminho_74" data-name="Caminho 74" d="M9.267,20.817c0-.318-.1-.4-.491-.569v-.164c.385-.116.761-.26,1.137-.414v.655a2.544,2.544,0,0,1,1.494-.655c.732,0,.964.54.964,1.214V23.1c0,.289.183.289.424.289h.164v.222H11.195v-.222h.154c.241,0,.414,0,.414-.289V20.865c0-.491-.3-.732-.79-.732a2.226,2.226,0,0,0-.964.414V23.1c0,.289.193.289.434.289H10.6v.222H8.67v-.222h.154c.241,0,.414,0,.414-.289Z" transform="translate(-0.277 -0.713)"/>
            <path id="Caminho_75" data-name="Caminho 75" d="M15.376,20.951c.212,0,.241-.116.241-.212a.732.732,0,0,0-.752-.79.984.984,0,0,0-.964.964Zm-1.532.279a4.345,4.345,0,0,0,0,.5,1.445,1.445,0,0,0,1.272,1.494,1.667,1.667,0,0,0,1.166-.578l.116.116a2,2,0,0,1-1.59.964,1.725,1.725,0,0,1-1.648-1.879c0-1.686,1.137-2.187,1.734-2.187a1.378,1.378,0,0,1,1.465,1.349v.164l-.077.048Z" transform="translate(-0.44 -0.713)"/>
            <path id="Caminho_76" data-name="Caminho 76" d="M16.68,23.389h.241c.241,0,.414,0,.414-.289V20.681c0-.27-.328-.328-.453-.4v-.135c.626-.26.964-.491,1.05-.491s.077,0,.077.106v.781h0c.212-.337.578-.887,1.108-.887a.463.463,0,0,1,.491.443h0a.414.414,0,0,1-.4.443h0c-.26,0-.26-.212-.569-.212a.732.732,0,0,0-.626.723v2.024c0,.279.164.279.414.279h.482v.231H16.68Z" transform="translate(-0.569 -0.713)"/>
            <path id="Caminho_77" data-name="Caminho 77" d="M20.123,22.407a1.147,1.147,0,0,0,1.089,1.06.617.617,0,0,0,.713-.588c0-1.021-1.879-.694-1.879-2.081a1.176,1.176,0,0,1,1.33-1.1,2.322,2.322,0,0,1,.964.251l.058.877H22.2a.887.887,0,0,0-.964-.848.6.6,0,0,0-.665.569c0,.964,1.995.694,1.995,2.043,0,.578-.453,1.176-1.484,1.176a2.236,2.236,0,0,1-1.05-.289l-.1-.964Z" transform="translate(-0.687 -0.714)"/>
            <path id="Caminho_78" data-name="Caminho 78" d="M30.576,19.076h-.212a1.648,1.648,0,0,0-1.85-1.416A2.457,2.457,0,0,0,26.085,20.4a2.8,2.8,0,0,0,2.563,2.987,1.754,1.754,0,0,0,1.734-1.494l.2.048-.2,1.262a4.818,4.818,0,0,1-1.927.453,3.064,3.064,0,0,1-3.286-3.238,3.17,3.17,0,0,1,3.267-3.035,6.273,6.273,0,0,1,2.033.453Z" transform="translate(-0.877 -0.63)"/>
            <path id="Caminho_79" data-name="Caminho 79" d="M31.1,23.289h.164c.241,0,.414,0,.414-.289V18.182c0-.569-.125-.578-.453-.665v-.145a5.916,5.916,0,0,0,.887-.366.723.723,0,0,1,.193-.1.17.17,0,0,1,.067.125V22.99c0,.279.183.279.434.279h.125V23.5H31.06Z" transform="translate(-1.092 -0.613)"/>
            <path id="Caminho_80" data-name="Caminho 80" d="M36.71,23.143c0,.154.087.164.241.164h.337v.173a7.834,7.834,0,0,0-1.233.27h-.048v-.694a2.351,2.351,0,0,1-1.522.723.964.964,0,0,1-.964-1.031V20.513c0-.231,0-.443-.511-.482v-.173c.308,0,.964-.058,1.108-.058s.1.058.1.251v2.226c0,.26,0,.964.752.964a1.927,1.927,0,0,0,1.041-.52V20.426c0-.173-.414-.27-.723-.357v-.154c.771-.058,1.262-.125,1.339-.125s.077.067.077.154Z" transform="translate(-1.163 -0.718)"/>
            <path id="Caminho_81" data-name="Caminho 81" d="M38.578,22.538a.964.964,0,0,0,.887.877c.964,0,1.31-.906,1.31-1.677A1.648,1.648,0,0,0,39.4,20.033a1.359,1.359,0,0,0-.819.4Zm0-2.351a2.2,2.2,0,0,1,1.33-.617,1.677,1.677,0,0,1,1.6,1.812,2.178,2.178,0,0,1-2.062,2.255,2.582,2.582,0,0,1-1.195-.3l-.26.2-.173-.087a10.282,10.282,0,0,0,.116-1.542V18.2c0-.569-.125-.578-.453-.665v-.145a5.917,5.917,0,0,0,.887-.366.723.723,0,0,1,.193-.1.17.17,0,0,1,.067.125Z" transform="translate(-1.326 -0.614)"/>
            <path id="Caminho_82" data-name="Caminho 82" d="M0,28.88H.087c.164,0,.347,0,.347-.27v-2.5c0-.241-.173-.26-.347-.26H0V25.71H1.436v.145H1.388c-.164,0-.347,0-.347.27v2.457c0,.241.173.27.347.27h.067v.135H0Z" transform="translate(0.039 -0.933)"/>
            <path id="Caminho_83" data-name="Caminho 83" d="M1.434,28.966V28.88H1.386c-.164,0-.366,0-.366-.289V26.114c0-.26.193-.289.366-.289h.048v-.1H.037v.1h0c.164,0,.366,0,.366.289v2.457c0,.26-.2.289-.366.289H0v.106H1.386m0,0H0v-.183H.085c.164,0,.328,0,.328-.251V26.114c0-.222-.154-.241-.328-.241H0V25.69H1.434v.183H1.386c-.164,0-.337,0-.337.251v2.457c0,.222.173.241.337.241h.087V29Z" transform="translate(0.04 -0.933)"/>
            <path id="Caminho_84" data-name="Caminho 84" d="M4.735,28.062h0V26.289a.385.385,0,0,0-.337-.434H4.234V25.72H5.467v.135H5.4c-.2,0-.424,0-.424.6v2.13a3.854,3.854,0,0,0,0,.472h-.1l-2.419-2.7v1.927c0,.4.077.549.443.549h.048v.135H1.709v-.087h.067c.328,0,.424-.222.424-.6v-2a.424.424,0,0,0-.424-.424H1.69V25.72h.964Z" transform="translate(-0.023 -0.934)"/>
            <path id="Caminho_85" data-name="Caminho 85" d="M4.736,28.06Zm.1.964h.154a3.575,3.575,0,0,1,0-.453v-2.13c0-.559.241-.617.443-.617h0v-.1H4.235v.1h.087a.424.424,0,0,1,.434.4.164.164,0,0,1,0,.067V28.06h0l-2.1-2.332H1.72v.1h0a.443.443,0,0,1,.443.443h0v1.975c0,.376-.1.617-.434.617H1.71v.106h1.2v-.087H2.857c-.366,0-.463-.173-.463-.578v-2Zm.173,0H4.813L2.433,26.4V28.33c0,.4.067.52.424.53h.1v.173H1.71V28.86H1.8c.308,0,.4-.2.4-.578V26.268a.4.4,0,0,0-.4-.4h-.1V25.69h.973l2.062,2.322V26.277a.357.357,0,0,0-.385-.414H4.215V25.68H5.449v.183H5.4c-.193,0-.4,0-.4.569v2.139a2.592,2.592,0,0,0,0,.472h0Z" transform="translate(-0.024 -0.932)"/>
            <path id="Caminho_86" data-name="Caminho 86" d="M6.318,25.985c-.328,0-.328,0-.434.385H5.74l.058-.385a2.727,2.727,0,0,0,0-.4h.193c0,.135.154.135.279.135H8.64c.125,0,.241,0,.251-.145h.116a1.01,1.01,0,0,1-.048.376,2.544,2.544,0,0,0,0,.385l-.145.048c0-.164,0-.453-.347-.453H7.7v2.5c0,.357.164.4.385.4h.1v.135H6.607v-.1h.087c.26,0,.4,0,.4-.4v-2.5Z" transform="translate(-0.17 -0.929)"/>
            <path id="Caminho_87" data-name="Caminho 87" d="M8.168,29H6.607v-.183h.106c.26,0,.366,0,.376-.376V25.985h.019v2.534c0,.376-.154.414-.414.414H6.626v.106H8.148v-.164H8.081c-.231,0-.414-.058-.414-.424V25.918h.79c.318,0,.357.27.366.443h.106v-.366a2.12,2.12,0,0,1,0-.357H8.852c0,.135-.154.145-.27.145H6.192c-.116,0-.231,0-.279-.135H5.836a2.467,2.467,0,0,1,0,.376V26.4h.1c.067-.328.106-.424.453-.424h0c-.4.01-.4.01-.491.4H5.72l.058-.385a2.727,2.727,0,0,0,0-.4H5.99c0,.116.116.116.241.125H8.64c.135,0,.222,0,.231-.125h.135a1.01,1.01,0,0,1-.048.376,2.448,2.448,0,0,0,0,.376h0l-.164.058h0c0-.173,0-.424-.328-.424H7.705v2.476c0,.347.145.376.366.376h.116v.183Z" transform="translate(-0.17 -0.929)"/>
            <path id="Caminho_88" data-name="Caminho 88" d="M9.29,28.88h.058c.173,0,.347,0,.347-.27v-2.5c0-.241-.173-.26-.347-.26H9.29V25.71H11.65v.713h-.145c0-.3-.077-.549-.569-.549H10.3v1.272h.549c.289,0,.347-.164.376-.414h.135V27.82h-.135c0-.279-.048-.463-.366-.463H10.3v1.1c0,.3.27.3.569.3.559,0,.809,0,.964-.569h.125c-.058.251-.116.5-.164.752H9.28Z" transform="translate(-0.299 -0.933)"/>
            <path id="Caminho_89" data-name="Caminho 89" d="M11.775,28.966c.048-.241.1-.482.154-.713h-.1c-.135.53-.4.578-.964.569-.3,0-.588,0-.588-.328V27.347h.578c.337,0,.366.2.385.463h.106v-.52a4.963,4.963,0,0,1,0-.53h-.106c0,.251-.106.424-.385.414h-.578V25.892h.655c.491,0,.578.241.6.54h.1v-.684H9.3v.106h0c.164,0,.366,0,.366.289V28.6c0,.26-.2.279-.366.289h0v.1h2.476m0,0H9.27V28.8h.087c.164,0,.328,0,.328-.241V26.114c0-.222-.154-.241-.328-.241H9.27V25.69h2.361v.3a3.566,3.566,0,0,0,0,.472h0l-.164.048h0c0-.308-.067-.52-.549-.53h-.636v1.185h.54c.27,0,.318-.135.347-.4h.183v.549a4.876,4.876,0,0,0,0,.53h-.164c0-.289,0-.443-.347-.443H10.3v1.07c0,.289.241.289.549.289.569,0,.79,0,.964-.559h.154c-.067.251-.116.5-.173.742h0Z" transform="translate(-0.299 -0.933)"/>
            <path id="Caminho_90" data-name="Caminho 90" d="M13.3,27.29h.222c.472,0,.723-.173.723-.723a.626.626,0,0,0-.588-.684H13.3ZM12.694,26.2c0-.337-.183-.347-.328-.347H12.28V25.71h1.484c.588,0,1.118.164,1.118.829a.887.887,0,0,1-.655.829l.8,1.2a.569.569,0,0,0,.463.279v.135h-.906a13.163,13.163,0,0,1-.964-1.522h-.308v.964c0,.366.164.376.376.376h.087v.145H12.29V28.88h.087c.164,0,.328-.077.328-.26Z" transform="translate(-0.408 -0.933)"/>
            <path id="Caminho_91" data-name="Caminho 91" d="M13.523,27.27c.472,0,.7-.164.7-.7a.607.607,0,0,0-.569-.665.164.164,0,0,0-.1,0h-.241v1.359Zm-.222,0h0v-1.4h.279a.665.665,0,0,1,.7.626v.077c0,.559-.27.752-.742.752Zm0,.135h.318a15.359,15.359,0,0,0,.964,1.513h.887V28.88a.53.53,0,0,1-.453-.289l-.809-1.224h0a.867.867,0,0,0,.646-.809c0-.655-.5-.809-1.1-.809H12.29v.1h.067c.145,0,.347,0,.347.385V28.59c0,.193-.173.279-.347.279H12.3v.1h1.455V28.88h-.067c-.212,0-.4,0-.4-.4V27.444Zm2.187,1.561h-.925a12.97,12.97,0,0,1-.964-1.513h-.279v.964c0,.357.145.357.357.357h.106v.183H12.3v-.183h.106c.164,0,.308-.077.308-.231V26.2c0-.328-.164-.328-.308-.328H12.3V25.69h1.484c.588,0,1.137.164,1.137.848a.887.887,0,0,1-.646.829l.79,1.185a.511.511,0,0,0,.443.27h0V29Z" transform="translate(-0.409 -0.933)"/>
            <path id="Caminho_92" data-name="Caminho 92" d="M18.794,28.061h0V26.288a.376.376,0,0,0-.4-.434h-.106V25.71h1.243v.145h-.067c-.2,0-.424,0-.424.6v2.13a3.853,3.853,0,0,0,0,.472H18.88l-2.419-2.7v1.927c0,.4.077.549.443.549h.048v.135H15.71V28.88h.067c.328,0,.424-.222.424-.6v-2a.424.424,0,0,0-.424-.424H15.71V25.72h.964Z" transform="translate(-0.533 -0.933)"/>
            <path id="Caminho_93" data-name="Caminho 93" d="M18.8,28.06Zm.1.964h.154a3.575,3.575,0,0,1,0-.453v-2.13c0-.559.241-.617.443-.617h.058v-.1H18.353v.1h.077a.414.414,0,0,1,.434.4v1.84h0L16.753,25.7h-.935v.1h0a.453.453,0,0,1,.453.443h0v1.975c0,.376-.106.617-.443.617H15.78v.106h1.2v-.058h-.029c-.376,0-.463-.164-.463-.569v-2Zm.173,0h-.183l-2.38-2.66v1.927c0,.4.067.52.424.52h.106v.183H15.79v-.183h.087c.308,0,.4-.193.4-.569V26.268a.4.4,0,0,0-.4-.4H15.79V25.69h.973l2.062,2.322V26.277a.366.366,0,0,0-.4-.414H18.3V25.68h1.243v.183h-.1c-.193,0-.385,0-.4.578v2.13a3.768,3.768,0,0,0,0,.472h0Z" transform="translate(-0.536 -0.932)"/>
            <path id="Caminho_94" data-name="Caminho 94" d="M21.105,26.227h0l-.434,1.33h.877Zm-.684,2.081a2.274,2.274,0,0,0-.1.366c0,.145.193.173.347.173h.058v.135h-.569a4.114,4.114,0,0,0-.5,0v-.106h0a.424.424,0,0,0,.4-.308l.752-2.158a4.085,4.085,0,0,0,.164-.588,2.477,2.477,0,0,0,.434-.193h0v.116l.867,2.467c.058.164.106.328.173.472a.308.308,0,0,0,.424.193h0v.135H21.529v-.135h.048c.106,0,.289,0,.289-.145a1.407,1.407,0,0,0-.1-.328l-.183-.54h-1.06Z" transform="translate(-0.677 -0.93)"/>
            <path id="Caminho_95" data-name="Caminho 95" d="M21.087,26.237Zm-.4,1.3h.819l-.4-1.253Zm-.058,0,.453-1.368h0l.443,1.368Zm.964,1.388h1.31v-.048h0a.328.328,0,0,1-.337-.2,4.481,4.481,0,0,1-.164-.472l-.858-2.457L21.5,25.63h0a1.629,1.629,0,0,1-.414.193,4.462,4.462,0,0,1-.164.588l-.752,2.158a.453.453,0,0,1-.424.318h0v.1h1.031v-.106h0c-.145,0-.357,0-.366-.183a1.677,1.677,0,0,1,.106-.376h0l.154-.5h1.06l.193.559a1.552,1.552,0,0,1,.1.347c0,.145-.2.154-.308.154h0Zm1.33,0H21.579v-.183h.077c.106,0,.27,0,.27-.116a1.349,1.349,0,0,0-.1-.337l-.173-.52h-1.07l-.145.472a2.275,2.275,0,0,0-.1.366c0,.116.173.135.328.135h.077v.193H19.69v-.058h.048a.4.4,0,0,0,.385-.289l.752-2.158a4.713,4.713,0,0,0,.183-.6,2.891,2.891,0,0,0,.424-.2h.048a.087.087,0,0,1,.058,0v.116l.867,2.457c.048.164.106.328.164.472a.27.27,0,0,0,.289.173h.048v.193Z" transform="translate(-0.678 -0.93)"/>
            <path id="Caminho_96" data-name="Caminho 96" d="M23.238,25.986c-.347,0-.366.087-.434.434H22.66c0-.135.048-.27.058-.4a2.727,2.727,0,0,0,0-.4h.116c0,.135.154.135.279.135h2.419c.125,0,.251,0,.26-.145H25.9a1.01,1.01,0,0,1-.048.376,1.037,1.037,0,0,0,0,.385l-.145.048c0-.164,0-.453-.347-.453h-.771v2.5c0,.357.173.4.4.4h.087V29H23.527v-.125h.1c.26,0,.385,0,.385-.4v-2.5Z" transform="translate(-0.786 -0.93)"/>
            <path id="Caminho_97" data-name="Caminho 97" d="M25.091,29H23.53v-.183h.116c.26,0,.357,0,.366-.376V25.984h.039v2.534c0,.376-.154.414-.4.414h-.077v.106h1.522v-.164h-.067c-.231,0-.414-.048-.414-.424V25.916h.79c.318,0,.357.27.366.443h.106v-.376a2.12,2.12,0,0,1,.01-.385h-.067c0,.135-.154.145-.279.145H23.125c-.116,0-.231,0-.279-.135h-.077a2.467,2.467,0,0,1,0,.376q0,.2,0,.376h.1c.067-.328.106-.434.453-.424h0c-.347,0-.328.067-.414.414H22.73a1.139,1.139,0,0,1,.048-.4,2.728,2.728,0,0,0,0-.4h.154c0,.116.116.116.241.125h2.438c.135,0,.231,0,.231-.135h.125a1.087,1.087,0,0,1-.048.385.986.986,0,0,0,0,.376h0l-.164.058h0c0-.173,0-.424-.337-.424h-.79v2.476c0,.347.154.376.376.376h.106v.183Z" transform="translate(-0.789 -0.928)"/>
            <path id="Caminho_98" data-name="Caminho 98" d="M26.23,28.88H26.3c.164,0,.347,0,.347-.27v-2.5c0-.241-.173-.26-.347-.26H26.23V25.71h1.436v.145H27.6c-.164,0-.347,0-.347.27v2.457c0,.241.173.27.347.27h.067v.135H26.23Z" transform="translate(-0.916 -0.933)"/>
            <path id="Caminho_99" data-name="Caminho 99" d="M27.646,28.966V28.88H27.6c-.164,0-.366,0-.366-.289V26.114c0-.26.193-.289.366-.289h.048v-.1H26.258v.1h0c.164,0,.366,0,.366.289v2.457c0,.26-.2.289-.366.289h0v.106h1.388m0,0H26.21v-.183H26.3c.164,0,.328,0,.328-.251V26.114c0-.222-.154-.241-.328-.241H26.21V25.69h1.426v.183h-.077c-.173,0-.337,0-.337.241v2.467c0,.222.154.241.337.241h.077V29Z" transform="translate(-0.915 -0.933)"/>
            <path id="Caminho_100" data-name="Caminho 100" d="M29.662,28.879c.915,0,1.07-.809,1.07-1.494s-.366-1.513-1.147-1.513-1.06.732-1.06,1.359c0,.829.376,1.648,1.137,1.648m-.067-3.209a1.648,1.648,0,0,1,1.792,1.619,1.725,1.725,0,0,1-1.638,1.792h-.135a1.657,1.657,0,0,1-1.754-1.686,1.7,1.7,0,0,1,1.677-1.725h.058" transform="translate(-0.976 -0.932)"/>
            <path id="Caminho_101" data-name="Caminho 101" d="M28.495,27.2c0-.626.251-1.378,1.089-1.378s1.166.848,1.166,1.532-.164,1.522-1.089,1.522h0c.887,0,1.041-.79,1.041-1.474s-.357-1.494-1.127-1.494-1.041.713-1.041,1.339c0,.829.385,1.619,1.127,1.628h0c-.781,0-1.166-.819-1.166-1.667m-.665.164a1.734,1.734,0,0,1,1.706-1.754h.058v.048a1.677,1.677,0,0,0-1.715,1.657v.048a1.638,1.638,0,0,0,1.734,1.667,1.706,1.706,0,0,0,1.754-1.783,1.619,1.619,0,0,0-1.773-1.59V25.62A1.667,1.667,0,0,1,31.4,27.258a1.744,1.744,0,0,1-1.667,1.821h-.125a1.686,1.686,0,0,1-1.773-1.706" transform="translate(-0.974 -0.93)"/>
            <path id="Caminho_102" data-name="Caminho 102" d="M34.694,28.061h0V26.288a.385.385,0,0,0-.328-.434h-.183V25.71h1.233v.145h-.058c-.193,0-.414,0-.414.6v2.13a2.592,2.592,0,0,0,0,.472h-.183l-2.419-2.7v1.927c0,.4.077.549.434.549h.077v.135H31.61V28.88h.067c.328,0,.424-.222.424-.6v-2a.424.424,0,0,0-.424-.424H31.61V25.71h.954Z" transform="translate(-1.112 -0.933)"/>
            <path id="Caminho_103" data-name="Caminho 103" d="M34.7,28.06Zm.087.964h.154a3.566,3.566,0,0,1,0-.453v-2.13c0-.559.231-.617.434-.617h.058v-.1H34.235v.1h.077a.414.414,0,0,1,.434.4v1.84h0L32.654,25.7H31.72v.1h0a.443.443,0,0,1,.443.443h0v1.975c0,.376-.106.617-.443.617h0v.106h1.2v-.058h-.067c-.366,0-.463-.164-.463-.569V26.3Zm.183,0h-.193l-2.38-2.66v1.927c0,.4.067.52.414.52h.145v.183H31.71v-.183H31.8c.308,0,.4-.193.4-.569V26.268a.4.4,0,0,0-.4-.4H31.71V25.69h.973l2.062,2.322V26.277a.357.357,0,0,0-.385-.414h-.125V25.68h1.243v.183h-.116c-.193,0-.4,0-.4.569v2.139a3.854,3.854,0,0,0,0,.472h0Z" transform="translate(-1.116 -0.932)"/>
            <path id="Caminho_104" data-name="Caminho 104" d="M37,26.226h0l-.434,1.33h.877Zm-.684,2.081a2.293,2.293,0,0,0-.106.366c0,.145.2.164.357.164h0v.145H36a4.269,4.269,0,0,0-.5,0v-.106h0a.434.434,0,0,0,.414-.308l.752-2.158a4.086,4.086,0,0,0,.279-.617,2.39,2.39,0,0,0,.424-.193h0v.116l.867,2.467c.058.164.116.328.173.472a.318.318,0,0,0,.308.193h0v.135H37.369v-.106h.058c.106,0,.289,0,.289-.145a1.407,1.407,0,0,0-.1-.328l-.183-.54h-.973Z" transform="translate(-1.254 -0.929)"/>
            <path id="Caminho_105" data-name="Caminho 105" d="M36.591,27.538h.819L37,26.285Zm-.058,0,.414-1.33h0l.443,1.368Zm.964,1.388h1.31v-.048h0a.318.318,0,0,1-.328-.2,4.481,4.481,0,0,1-.164-.472l-.867-2.457V25.63h0a1.628,1.628,0,0,1-.414.193,5.909,5.909,0,0,1-.173.588l-.877,2.139a.443.443,0,0,1-.434.318h0v.1h.491a5.136,5.136,0,0,1,.54,0v-.087h0c-.154,0-.366,0-.366-.183a2.688,2.688,0,0,1,.1-.376h0l.154-.491h1.1l.193.549a1.523,1.523,0,0,1,.087.347c0,.145-.2.154-.308.154h0Zm1.33,0H37.477v-.183h.077c.106,0,.27,0,.27-.116a1.927,1.927,0,0,0-.1-.337l-.183-.52h-1.07l-.145.472a1.58,1.58,0,0,0-.1.366c0,.116.173.145.328.145h.067v.183H35.56v-.058h0a.4.4,0,0,0,.385-.289l.752-2.158a4.713,4.713,0,0,0,.183-.6,2.987,2.987,0,0,0,.434-.2h0a.058.058,0,0,1,.058,0,.54.54,0,0,0,0,.116l.867,2.457c.058.164.106.328.164.472a.289.289,0,0,0,.289.173h.183v.193Z" transform="translate(-1.255 -0.93)"/>
            <path id="Caminho_106" data-name="Caminho 106" d="M40.132,28.524c0,.193.135.241.279.26a2.727,2.727,0,0,0,.626,0,.636.636,0,0,0,.443-.251,1.128,1.128,0,0,0,.154-.328h.135L41.6,29H39.12V28.88h.067c.164,0,.357,0,.357-.318V26.115c0-.241-.183-.26-.357-.26H39.12V25.71h1.455v.145h-.116c-.183,0-.318,0-.318.251Z" transform="translate(-1.385 -0.933)"/>
            <path id="Caminho_107" data-name="Caminho 107" d="M41.576,28.965a4.3,4.3,0,0,1,.164-.761h-.1a1.147,1.147,0,0,1-.145.337.723.723,0,0,1-.463.26H40.41a.275.275,0,0,1-.3-.289V26.1c0-.26.164-.279.328-.279h.106v-.1H39.129v.1h0c.173,0,.376,0,.376.289v2.419c0,.3-.2.328-.376.328h0v.1h2.438m0,0H39.1v-.173h.087c.164,0,.328,0,.328-.3V26.074c0-.222-.164-.241-.328-.241H39.1V25.65h1.455v.183h-.106c-.173,0-.289,0-.289.231v2.419c0,.173.106.222.26.241h.26a2.274,2.274,0,0,0,.357,0,.636.636,0,0,0,.424-.241.964.964,0,0,0,.145-.328H41.8l-.173.79h0Z" transform="translate(-1.385 -0.931)"/>
            <path id="Caminho_108" data-name="Caminho 108" d="M41.7,26.062h.067c.058,0,.087,0,.087-.125a.1.1,0,0,0-.077-.106H41.7Zm-.164.27h.077v-.443a.069.069,0,0,0-.077-.067h.26c.087,0,.164,0,.164.135a.154.154,0,0,1-.116.145l.077.116.106.116h-.058s-.087-.106-.173-.231h-.058v.164h.077Zm.251.135a.4.4,0,1,0-.4-.4h0a.4.4,0,0,0,.4.4m0-.9a.491.491,0,0,1,.491.5.5.5,0,1,1-.964,0,.482.482,0,0,1,.472-.5h0" transform="translate(-1.465 -0.929)"/>
          </g>
        </g>
      </g>
    </g>
  </g>
</svg>
