<svg xmlns="http://www.w3.org/2000/svg" width="17.568" height="17.604" viewBox="0 0 17.568 17.604">
  <g id="rodape-telefone" transform="translate(-0.539)">
    <g id="Grupo_322" data-name="Grupo 322" transform="translate(0.539 0)">
      <path id="Caminho_275" data-name="Caminho 275" d="M17.646,12.92l-2.457-2.457a1.634,1.634,0,0,0-2.72.614,1.672,1.672,0,0,1-1.93,1.053A7.576,7.576,0,0,1,5.976,7.568a1.59,1.59,0,0,1,1.053-1.93,1.634,1.634,0,0,0,.614-2.72L5.187.461a1.752,1.752,0,0,0-2.369,0L1.151,2.128c-1.667,1.755.175,6.405,4.3,10.529s8.774,6.054,10.529,4.3l1.667-1.667A1.752,1.752,0,0,0,17.646,12.92Z" transform="translate(-0.539 0)" fill="#fecf11"/>
    </g>
  </g>
</svg>
