<svg xmlns="http://www.w3.org/2000/svg" width="20.914" height="21.015" viewBox="0 0 20.914 21.015">
  <path id="rodape_whatsapp" d="M18.117,3.054A10.416,10.416,0,0,0,1.727,15.619L.25,21.015l5.52-1.448a10.4,10.4,0,0,0,4.976,1.267h0a10.418,10.418,0,0,0,7.366-17.78ZM10.751,19.075h0a8.644,8.644,0,0,1-4.405-1.206l-.316-.188-3.276.859.874-3.194-.206-.327a8.655,8.655,0,1,1,7.332,4.056ZM15.5,12.593c-.26-.13-1.539-.76-1.778-.847s-.412-.13-.585.13-.672.847-.824,1.02-.3.2-.564.065a7.107,7.107,0,0,1-2.092-1.291,7.848,7.848,0,0,1-1.447-1.8c-.152-.261,0-.388.114-.531a7.36,7.36,0,0,0,.65-.89.479.479,0,0,0-.022-.456c-.065-.13-.585-1.411-.8-1.932s-.426-.439-.586-.447-.325-.009-.5-.009a.956.956,0,0,0-.694.326A2.918,2.918,0,0,0,5.459,8.1a5.062,5.062,0,0,0,1.062,2.692,11.6,11.6,0,0,0,4.445,3.929,14.893,14.893,0,0,0,1.483.548,3.567,3.567,0,0,0,1.639.1,2.681,2.681,0,0,0,1.756-1.237A2.174,2.174,0,0,0,16,12.9c-.065-.109-.238-.174-.5-.3Zm0,0" transform="translate(-0.25)" fill="#fecf11" fill-rule="evenodd"/>
</svg>
