<svg id="rodape_instagram" xmlns="http://www.w3.org/2000/svg" xmlns:xlink="http://www.w3.org/1999/xlink" width="30" height="30" viewBox="0 0 30 30">
  <defs>
    <linearGradient id="linear-gradient" x1="0.146" y1="0.146" x2="0.854" y2="0.854" gradientUnits="objectBoundingBox">
      <stop offset="0" stop-color="#fae100"/>
      <stop offset="0.15" stop-color="#fcb720"/>
      <stop offset="0.3" stop-color="#ff7950"/>
      <stop offset="0.5" stop-color="#ff1c74"/>
      <stop offset="1" stop-color="#6c1cd1"/>
    </linearGradient>
  </defs>
  <g id="Circle" transform="translate(0 0)">
    <g id="_03.Instagram" data-name="03.Instagram">
      <rect id="Background" width="30" height="30" rx="15" fill="url(#linear-gradient)"/>
      <g id="Grupo_629" data-name="Grupo 629" transform="translate(0.003)">
        <path id="Shade" d="M25.929,5.059a52.719,52.719,0,0,1-9.014,11.849A52.789,52.789,0,0,1,5.071,25.916q-.372-.323-.722-.673A14.786,14.786,0,1,1,25.257,4.329q.348.352.672.729Z" transform="translate(-0.016 0)" fill="#fff" opacity="0.1"/>
        <g id="Icon" transform="translate(7.001 7.004)">
          <path id="Caminho_1066" data-name="Caminho 1066" d="M47.285,36h-7A4.28,4.28,0,0,0,36,40.28v7a4.28,4.28,0,0,0,4.28,4.28h7a4.28,4.28,0,0,0,4.28-4.28v-7A4.28,4.28,0,0,0,47.285,36ZM50.2,46.67A3.533,3.533,0,0,1,46.67,50.2H40.9a3.533,3.533,0,0,1-3.533-3.533V40.9A3.533,3.533,0,0,1,40.9,37.362H46.67A3.533,3.533,0,0,1,50.2,40.9Z" transform="translate(-36 -36)" fill="#fff"/>
          <path id="Caminho_1067" data-name="Caminho 1067" d="M62.423,56.542l-.037-.037-.031-.031a3.922,3.922,0,0,0-2.771-1.144,3.992,3.992,0,0,0-3.965,4.022,4.037,4.037,0,0,0,1.167,2.843,3.928,3.928,0,0,0,2.806,1.167,4.033,4.033,0,0,0,2.831-6.819ZM59.585,61.99a2.638,2.638,0,1,1,2.6-2.638A2.638,2.638,0,0,1,59.585,61.99Z" transform="translate(-51.802 -51.569)" fill="#fff"/>
          <path id="Caminho_1068" data-name="Caminho 1068" d="M94.626,50.433a.949.949,0,0,1-.944.957.936.936,0,0,1-.665-.278.959.959,0,0,1,.667-1.632.938.938,0,0,1,.6.218l.019.019a.594.594,0,0,1,.086.086l.021.023A.957.957,0,0,1,94.626,50.433Z" transform="translate(-81.701 -46.857)" fill="#fff"/>
        </g>
      </g>
    </g>
  </g>
</svg>
